/* XPM */
static char *_e6fde6d98804297f2221201d4057f533ARMbnv86DivvTdj[] = {
/* columns rows colors chars-per-pixel */
"32 32 143 2 ",
"   c None",
".  c black",
"X  c #010101",
"o  c #020201",
"O  c #020202",
"+  c #020302",
"@  c #030302",
"#  c gray1",
"$  c #040403",
"%  c #040404",
"&  c #050504",
"*  c #060605",
"=  c #070706",
"-  c #080807",
";  c #090907",
":  c #0A0A08",
">  c #0C0C0A",
",  c #0C0D0A",
"<  c #0D0D0B",
"1  c #0E0E0B",
"2  c #0F0F0C",
"3  c #10100D",
"4  c #12120F",
"5  c #131310",
"6  c #131410",
"7  c #141410",
"8  c #151511",
"9  c #161612",
"0  c #171713",
"q  c #171813",
"w  c #181914",
"e  c #191A15",
"r  c #1A1A15",
"t  c #1B1B16",
"y  c #1C1C17",
"u  c #1C1D17",
"i  c #1D1D18",
"p  c #1F1F19",
"a  c #23241D",
"s  c #26271F",
"d  c #272720",
"f  c #272820",
"g  c #292921",
"h  c #292922",
"j  c #292A22",
"k  c #2B2C24",
"l  c #2C2C24",
"z  c #2F3027",
"x  c #303128",
"c  c #323329",
"v  c #32332A",
"b  c #34352B",
"n  c #35362C",
"m  c #36372D",
"M  c #37382D",
"N  c #38392E",
"B  c #3A3B30",
"V  c #3C3C31",
"C  c #3D3E33",
"Z  c #3F3F34",
"A  c #3F4034",
"S  c #404034",
"D  c #404135",
"F  c #424337",
"G  c #444538",
"H  c #48493B",
"J  c #4B4D3E",
"K  c #4C4D3E",
"L  c #4D4E40",
"P  c #4F5041",
"I  c #505142",
"U  c #515243",
"Y  c #525343",
"T  c #535445",
"R  c #565746",
"E  c #575848",
"W  c #575948",
"Q  c #585948",
"!  c #5C5D4C",
"~  c #5D5E4D",
"^  c #5F604E",
"/  c #5F614F",
"(  c #60614F",
")  c #60624F",
"_  c #616250",
"`  c #636552",
"'  c #666754",
"]  c #696B56",
"[  c #696B57",
"{  c #6A6B57",
"}  c #6A6C57",
"|  c #6B6C58",
" . c #6D6F5A",
".. c #6E705A",
"X. c #6E705B",
"o. c #6F705B",
"O. c #6F715B",
"+. c #6F715C",
"@. c #70715C",
"#. c #70725D",
"$. c #72735E",
"%. c #72745E",
"&. c #73755F",
"*. c #74765F",
"=. c #747660",
"-. c #757660",
";. c #767761",
":. c #777962",
">. c #777963",
",. c #787962",
"<. c #787A63",
"1. c #797A64",
"2. c #797B64",
"3. c #7A7B64",
"4. c #7A7C65",
"5. c #7B7C65",
"6. c #7B7D65",
"7. c #7B7D66",
"8. c #7D7F67",
"9. c #7E8067",
"0. c #7E8068",
"q. c #7F8068",
"w. c #7F8169",
"e. c #808269",
"r. c #80826A",
"t. c #81826A",
"y. c #81836A",
"u. c #82846B",
"i. c #84866D",
"p. c #85876D",
"a. c #85876E",
"s. c #86886E",
"d. c #86886F",
"f. c #87896F",
"g. c #888A70",
"h. c #888A71",
"j. c #898B71",
"k. c #8A8C72",
"l. c #8B8D72",
"z. c #8B8D73",
"x. c #8C8E73",
"c. c #8C8E74",
"v. c #8D8F75",
/* pixels */
"                        % X X X X X X %                         ",
"                    X X X X X X X X X X X X %                   ",
"                X X X X X X X X X X X X X X X X                 ",
"            X X X X X X X X X X X X X X X X X X X X             ",
"          X X X X X X X X X X X X X X X X X X X X X X           ",
"        X X X X X X X X X X X X X X X 3 5 % X X X X X X         ",
"      X X X X X X X X X X X X X X < U 1.8._ t X X X X X X       ",
"      X X X X X X X X X X X X X X U x.4.=.z.{ < X X X X X X     ",
"    X X X X X X X X X X X X X X t y.=.t 2 _ z.x X X X X X X     ",
"    X X X X X X X X X X X X X X n x.L X X l z.U X X X X X X X   ",
"  X X X X X X X X X X X X X X X H v.B X X p i.^ X X X X X X X   ",
"  X X X X X X X X X X X X X X X K 4.U x : t i.( X X X X X X X   ",
"  X X X X X X X X X X X X X X X C 4.g.x.T l j.E X X X X X X X X ",
"X X X X X X X X X X X X X X X q &.d. .$.<.~ z.Z X X X X X X X X ",
"X X X X X X X X X X X X X X X G y. .9.} $.d.4.q X X X X X X X X ",
"X X X X X X X X X X X X X X $ 0 g s $.j.j.0.m X X X X X X X X X ",
"X X X X X X X X X X X X X X x H 5 X k  .~ y X X X X X X X X X X ",
"X X X X X X X X X X X X g E $.i.P q J z.D X X X X X X X X X X X ",
"% X X X X X X X X X $ D 0.0.:.0.:.} &.1.0 X X X X X X X X X X X ",
"  X X X X X X X X X D i.:.n E y.O.y.{ M X X X X X X X X X X X X ",
"  X X X X X X X X g y.:.s X g <.=.u.x X X X X X X X X X X X X   ",
"  X X X X X X X $ ( i.n X X X C 0.&.< X X X X X X X X X X X X   ",
"    X X X X X X 4 <.O.; X X 4 ' d.A X X X X X X X X X X X X X   ",
"    X X X X X X 3 :.&.0 $ a } g.E ; X X X X X X X X X X X X     ",
"      X X X X X X U j.@.` 9.d.E > X X X X X X X X X X X X X     ",
"      X X X X X X 2 E 9.y.{ N % X X X X X X X X X X X X X       ",
"        X X X X X X X t t ; X X X X X X X X X X X X X X         ",
"          X X X X X X X X X X X X X X X X X X X X X X           ",
"            X X X X X X X X X X X X X X X X X X X X             ",
"                X X X X X X X X X X X X X X X X X               ",
"                    X X X X X X X X X X X X X                   ",
"                        X X X X X X X X                         "
};
