/* XPM */
static char *d7e0b1f568324c3ccc79dc2db61f8d0fm5exJxbcBPwdN0PC[] = {
/* columns rows colors chars-per-pixel */
"16 16 60 1 ",
"  c None",
". c black",
"X c #010101",
"o c #020202",
"O c #030302",
"+ c gray1",
"@ c #040403",
"# c #050504",
"$ c #070706",
"% c #080907",
"& c #0B0C09",
"* c #0C0C0A",
"= c #0D0E0B",
"- c #0E0E0B",
"; c #0F0F0C",
": c #11110E",
"> c #11120E",
", c #12120F",
"< c #1A1B16",
"1 c #1B1C17",
"2 c #1E1E19",
"3 c #1E1F19",
"4 c #1F1F19",
"5 c #272720",
"6 c #282921",
"7 c #292A22",
"8 c #2A2B23",
"9 c #323329",
"0 c #34352B",
"q c #37382E",
"w c #38392F",
"e c #3B3C31",
"r c #3E3F33",
"t c #414236",
"y c #444538",
"u c #454638",
"i c #46473A",
"p c #494A3C",
"a c #4E4F40",
"s c #525343",
"d c #535444",
"f c #565847",
"g c #595B4A",
"h c #5B5C4B",
"j c #5B5D4C",
"k c #5C5E4C",
"l c #5D5E4D",
"z c #616250",
"x c #626351",
"c c #626451",
"v c #636552",
"b c #646652",
"n c #646653",
"m c #686956",
"M c #686A56",
"N c #70715C",
"B c #70725D",
"V c #73755F",
"C c #787963",
"Z c #797B64",
/* pixels */
"     XXXXXX     ",
"    XXXXXXXXX   ",
"  XXXXXXX&=XXX  ",
"  XXXXXX2vm6XXX ",
" XXXXXXXsr9hXXX ",
" XXXXXX@jw2x%XXX",
"XXXXXXX=mZhl@XXX",
"XXXXXXX<pNZ0XXXX",
"XXXXXO5d8lqXXXXX",
"XXXXXtxBVh&XXXXX",
"XXXX6x>eV1XXXXXX",
" XXXup>fiXXXXXX ",
"  XX2vby$XXXXXX ",
"  XXX=>XXXXXXX  ",
"   XXXXXXXXXX   ",
"     XXXXXX     "
};
