/* XPM */
static char *_d421334ef94497481732301e06425f9h2yEjoEJpHDKNr3c[] = {
/* columns rows colors chars-per-pixel */
"64 64 226 2 ",
"   c None",
".  c black",
"X  c #010100",
"o  c #010101",
"O  c #020201",
"+  c #020202",
"@  c #030302",
"#  c gray1",
"$  c #040403",
"%  c #040404",
"&  c #050504",
"*  c gray2",
"=  c #060605",
"-  c #060606",
";  c #070706",
":  c #070707",
">  c #080806",
",  c #080807",
"<  c #090907",
"1  c gray3",
"2  c #090908",
"3  c #090909",
"4  c #090A08",
"5  c #0A0A08",
"6  c gray4",
"7  c #0C0C0A",
"8  c #0D0D0B",
"9  c #0E0E0B",
"0  c #10100D",
"q  c #11110E",
"w  c #12120F",
"e  c #12130F",
"r  c #13130F",
"t  c #131410",
"y  c #151511",
"u  c #161612",
"i  c #171813",
"p  c #181813",
"a  c #181814",
"s  c #191914",
"d  c #191A15",
"f  c #1A1A15",
"g  c #1A1B16",
"h  c #1B1B16",
"j  c #1B1C17",
"k  c #1C1D17",
"l  c #1D1D17",
"z  c #1D1D18",
"x  c #1D1E18",
"c  c #1E1E19",
"v  c #1E1F19",
"b  c #1F1F19",
"n  c #1F201A",
"m  c #20211B",
"M  c #21211B",
"N  c #22221C",
"B  c #23241D",
"V  c #24241D",
"C  c #25251E",
"Z  c #26271F",
"A  c #262720",
"S  c #272720",
"D  c #282821",
"F  c #282921",
"G  c #292921",
"H  c #292A22",
"J  c #2A2B23",
"K  c #2B2C24",
"L  c #2C2D24",
"P  c #2D2E25",
"I  c #2E2E26",
"U  c #2E2F26",
"Y  c #2F2F26",
"T  c #303027",
"R  c #303128",
"E  c #313228",
"W  c #313229",
"Q  c #323329",
"!  c #33332A",
"~  c #33342A",
"^  c #34352B",
"/  c #35352B",
"(  c #35362C",
")  c #36362C",
"_  c #36372D",
"`  c #37372D",
"'  c #37382D",
"]  c #37382E",
"[  c #38392E",
"{  c #393A2F",
"}  c #3A3B30",
"|  c #3B3B30",
" . c #3C3D31",
".. c #3C3D32",
"X. c #3D3E33",
"o. c #3E3F33",
"O. c #3F4034",
"+. c #404135",
"@. c #414236",
"#. c #434437",
"$. c #454639",
"%. c #464739",
"&. c #46473A",
"*. c #47483A",
"=. c #48493C",
"-. c #494A3C",
";. c #4B4C3E",
":. c #4C4D3F",
">. c #4D4E3F",
",. c #4D4F40",
"<. c #4E4F40",
"1. c #4F5041",
"2. c #505142",
"3. c #525343",
"4. c #525344",
"5. c #525444",
"6. c #535444",
"7. c #535445",
"8. c #545545",
"9. c #555646",
"0. c #555746",
"q. c #565747",
"w. c #575847",
"e. c #585948",
"r. c #595B4A",
"t. c #5A5B4A",
"y. c #5B5C4B",
"u. c #5C5D4C",
"i. c #5D5E4C",
"p. c #5D5E4D",
"a. c #5D5F4D",
"s. c #5E5F4D",
"d. c #5F604E",
"f. c #5F604F",
"g. c #5F614F",
"h. c #60614F",
"j. c #616250",
"k. c #616350",
"l. c #626351",
"z. c #626451",
"x. c #636451",
"c. c #636452",
"v. c #636552",
"b. c #646552",
"n. c #646652",
"m. c #656653",
"M. c #656753",
"N. c #676955",
"B. c #686A56",
"V. c #6A6B57",
"C. c #6A6B58",
"Z. c #6B6D59",
"A. c #6C6D59",
"S. c #6C6E59",
"D. c #6D6E59",
"F. c #6D6E5A",
"G. c #6D6F5A",
"H. c #6E6F5B",
"J. c #6E705B",
"K. c #6F715C",
"L. c #70725C",
"P. c #70725D",
"I. c #71735D",
"U. c #72735D",
"Y. c #71735E",
"T. c #72735E",
"R. c #72745E",
"E. c #72745F",
"W. c #73755F",
"Q. c #747660",
"!. c #757660",
"~. c #757760",
"^. c #757761",
"/. c #767861",
"(. c #777962",
"). c #787A63",
"_. c #797A63",
"`. c #797A64",
"'. c #797B64",
"]. c #7A7C64",
"[. c #7A7C65",
"{. c #7B7D65",
"}. c #7B7D66",
"|. c #7C7D66",
" X c #7C7E66",
".X c #7D7E66",
"XX c #7C7E67",
"oX c #7D7F67",
"OX c #7E7F67",
"+X c #7E8067",
"@X c #7E8068",
"#X c #7F8068",
"$X c #7F8168",
"%X c #7F8169",
"&X c #808269",
"*X c #80826A",
"=X c #81826A",
"-X c #81836A",
";X c #81836B",
":X c #82836B",
">X c #82846B",
",X c #83856B",
"<X c #82846C",
"1X c #83856C",
"2X c #83856D",
"3X c #84856D",
"4X c #84866D",
"5X c #85876D",
"6X c #85876E",
"7X c #86886E",
"8X c #87896E",
"9X c #86886F",
"0X c #87896F",
"qX c #878A6F",
"wX c #888A6F",
"eX c #878970",
"rX c #888970",
"tX c #888A70",
"yX c #888A71",
"uX c #898B71",
"iX c #8A8C72",
"pX c #8B8D72",
"aX c #8B8D73",
"sX c #8C8E73",
"dX c #8C8E74",
"fX c #8D8F74",
/* pixels */
"                                                        % 3 % # # # % % 3                                                       ",
"                                              # % # # # # # # # # # # # # # # # %                                               ",
"                                          # # # # # # # # # # # # # # # # # # # # # # #                                         ",
"                                    % # # # # # # # # # # # # # # # # # # # # # # # # # # #                                     ",
"                                  # # # # # # # # # # # # # # # # # # # # # # # # # # # # # # #                                 ",
"                              # # # # # # # # # # # # # # # # # # # # # # # # # # # # # # # # # # %                             ",
"                          % # # # # # # # # # # # # # # # # # # # # # # # # # # # # # # # # # # # # #                           ",
"                        # # # # # # # # # # # # # # # # # # # # # # # # # # # # # # # # # # # # # # # #                         ",
"                      # # # # # # # # # # # # # # # # # # # # # # # # # # # # # # # # # # # # # # # # # # %                     ",
"                    # # # # # # # # # # # # # # # # # # # # # # # # # # # # # # # # # # # # # # # # # # # # #                   ",
"                  # # # # # # # # # # # # # # # # # # # # # # # # # # # # # # # # # # # # # # # # # # # # # # #                 ",
"                % # # # # # # # # # # # # # # # # # # # # # # # # # # # # # > a a 0 # # # # # # # # # # # # # #                 ",
"              % # # # # # # # # # # # # # # # # # # # # # # # # # # # # 0 $.D.@X@X].l.U $ # # # # # # # # # # # #               ",
"              # # # # # # # # # # # # # # # # # # # # # # # # # # # # n J.iXfXiXiXiXfX4X=.% # # # # # # # # # # # #             ",
"            # # # # # # # # # # # # # # # # # # # # # # # # # # # # 0 D.sXiXiXsXfXiXiXdX0XO.# # # # # # # # # # # # #           ",
"          # # # # # # # # # # # # # # # # # # # # # # # # # # # # # ;.iXiXiX1Xm.r.^.iXiXiX).u # # # # # # # # # # # #           ",
"          # # # # # # # # # # # # # # # # # # # # # # # # # # # # u `.iXiX>X) # # u x.iXiXiX+.# # # # # # # # # # # # #         ",
"        # # # # # # # # # # # # # # # # # # # # # # # # # # # # # ' iXiXiX0.# # # # z .XiXfXB.> # # # # # # # # # # # #         ",
"        # # # # # # # # # # # # # # # # # # # # # # # # # # # # # 3.fXiX0XD # # # # # g.fXdXOXa # # # # # # # # # # # # #       ",
"      % # # # # # # # # # # # # # # # # # # # # # # # # # # # # % B.sXiX).e # # # # # $.dXtXeXU # # # # # # # # # # # # #       ",
"      # # # # # # # # # # # # # # # # # # # # # # # # # # # # # 0 ).iXsXJ.> # # # # # E tXiXiX{ # # # # # # # # # # # # # #     ",
"    % # # # # # # # # # # # # # # # # # # # # # # # # # # # # # k @XiXfXB.% # # # # # J 0XiXfX+.# # # # # # # # # # # # # #     ",
"    # # # # # # # # # # # # # # # # # # # # # # # # # # # # # # z ;XfXtXt.7 > # # # # D eXiXiX+.# # # # # # # # # # # # # #     ",
"    # # # # # # # # # # # # # # # # # # # # # # # # # # # # # # N ;X^.t.i.Z.D.:.u # # U tXiXiXX.# # # # # # # # # # # # # # #   ",
"    # # # # # # # # # # # # # # # # # # # # # # # # # # # # # # a u.u.].dXfXsXsXP.a # } iXiXiX( # # # # # # # # # # # # # # #   ",
"  % # # # # # # # # # # # # # # # # # # # # # # # # # # # # # # 0 g.eXdXiXiXfXtXdXe.# ,.sXiX4XS # # # # # # # # # # # # # # #   ",
"  # # # # # # # # # # # # # # # # # # # # # # # # # # # # # # % 7.iXiXfX;XH..XtXiX`.z C.sXiX].u # # # # # # # # # # # # # # # % ",
"  # # # # # # # # # # # # # # # # # # # # # # # # # # # # # # { eXiXiX].c.q.) 1XdX.X:.4XiXfXl.% # # # # # # # # # # # # # # # # ",
"  # # # # # # # # # # # # # # # # # # # # # # # # # # # # # u W.dXdX1Xx.;XeX1.1.h.g.].fXiXtX( # # # # # # # # # # # # # # # # # ",
"  # # # # # # # # # # # # # # # # # # # # # # # # # # # # # +.x.].4Xf.B.dXtXtX/.W.>XiXiXsXZ.7 # # # # # # # # # # # # # # # # # ",
"  # # # # # # # # # # # # # # # # # # # # # # # # # # # # # k N { y.n O.tXdXdXiXiXiXiXiX.XD # # # # # # # # # # # # # # # # # # ",
"  # # # # # # # # # # # # # # # # # # # # # # # # # # # # $ # # # t # > 7.4XiXdXsXsXiXW.U # # # # # # # # # # # # # # # # # # # ",
"  # # # # # # # # # # # # # # # # # # # # # # # # # # # 1 X.S m 8 # # # # { l.Z.J.x.+.0 # # # # # # # # # # # # # # # # # # # # ",
"  # # # # # # # # # # # # # # # # # # # # # # # # # # # z D.N.^.{ # # # # $.W.m.x.~ # # # # # # # # # # # # # # # # # # # # # # ",
"  # # # # # # # # # # # # # # # # # # # # # # # # % Y 0.,.4XdXdX:.a # # 7 W.sXiX1XZ # # # # # # # # # # # # # # # # # # # # # # ",
"  # # # # # # # # # # # # # # # # # # # # # # # N u.1X@Xh.tXtX4X0.W.+.# E 0XiXsXm.$ # # # # # # # # # # # # # # # # # # # # # # ",
"  # # # # # # # # # # # # # # # # # # # # # # ' ).0X0X].l.tXfX].m.wX&XX.x.iXiX0X~ # # # # # # # # # # # # # # # # # # # # # # # ",
"  # # # # # # # # # # # # # # # # # # # # % +.@X0X0XwX].l.tXdXP.N.0X0XK.g.iXfXx.% # # # # # # # # # # # # # # # # # # # # # # # ",
"  # # # # # # # # # # # # # # # # # # # # #.>X0X0X0XP.( X.tXfXD.1.0X0X@X4.1X].B # # # # # # # # # # # # # # # # # # # # # # #   ",
"    # # # # # # # # # # # # # # # # # # { &X0X4X0Xx.s # z @XdX;X5.+X0X4Xe.W.~ # # # # # # # # # # # # # # # # # # # # # # # #   ",
"    # # # # # # # # # # # # # # # # # N ].0X0X4Xu.0 # # $ l.fXiXm..X0X0X3.S # # # # # # # # # # # # # # # # # # # # # # # # #   ",
"    # # # # # # # # # # # # # # # # 3 x.wX0X0Xh.7 # # # # D &X>Xg.>X0X4X~ # # # # # # # # # # # # # # # # # # # # # # # # # #   ",
"    % # # # # # # # # # # # # # # # T >X4X0XP.s # # # # # # U 3.J.0X0X.Xk # # # # # # # # # # # # # # # # # # # # # # # # #     ",
"      # # # # # # # # # # # # # # # i.0X0X>X( # # # # # # # # $.5X0XwXi.# # # # # # # # # # # # # # # # # # # # # # # # # #     ",
"      # # # # # # # # # # # # # # r W.0X0XD.7 # # # # # # # ( +X0X0X@XJ # # # # # # # # # # # # # # # # # # # # # # # # #       ",
"        # # # # # # # # # # # # # k +X0XwX0.# # # # # # # T ].0X5X0X:.# # # # # # # # # # # # # # # # # # # # # # # # # #       ",
"        # # # # # # # # # # # # # a .X0XtXt.# # # # # $ ' ].0X0X0Xm.0 # # # # # # # # # # # # # # # # # # # # # # # # # %       ",
"          # # # # # # # # # # # # 7 P.0X0X].B # # # s 7.&X0X0X0XD.s # # # # # # # # # # # # # # # # # # # # # # # # # #         ",
"          # # # # # # # # # # # # # =.0X0X0X).:.X.5./.wX4X0X0XV.a # # # # # # # # # # # # # # # # # # # # # # # # # #           ",
"            # # # # # # # # # # # # u P.0X0X0X0XwXwXwX4X0X0Xh.s # # # # # # # # # # # # # # # # # # # # # # # # # # #           ",
"            # # # # # # # # # # # # # Z W.wX0X0X4X0XwXwX).$.> # # # # # # # # # # # # # # # # # # # # # # # # # # #             ",
"              # # # # # # # # # # # # # z i..X4X4X&XD.$.u # # # # # # # # # # # # # # # # # # # # # # # # # # # #               ",
"                # # # # # # # # # # # # # $ a U ( N > # # # # # # # # # # # # # # # # # # # # # # # # # # # # # %               ",
"                  # # # # # # # # # # # # # # # # # # # # # # # # # # # # # # # # # # # # # # # # # # # # # # %                 ",
"                    # # # # # # # # # # # # # # # # # # # # # # # # # # # # # # # # # # # # # # # # # # # # #                   ",
"                      # # # # # # # # # # # # # # # # # # # # # # # # # # # # # # # # # # # # # # # # # # #                     ",
"                        # # # # # # # # # # # # # # # # # # # # # # # # # # # # # # # # # # # # # # # # %                       ",
"                          % # # # # # # # # # # # # # # # # # # # # # # # # # # # # # # # # # # # # #                           ",
"                              # # # # # # # # # # # # # # # # # # # # # # # # # # # # # # # # # # #                             ",
"                                # # # # # # # # # # # # # # # # # # # # # # # # # # # # # # # #                                 ",
"                                    # # # # # # # # # # # # # # # # # # # # # # # # # # # # %                                   ",
"                                        # # # # # # # # # # # # # # # # # # # # # # # # %                                       ",
"                                              # # # # # # # # # # # # # # # # # # #                                             ",
"                                                      # # # # # # # # # # #                                                     "
};
